<svg width="15" height="14" viewBox="0 0 15 14" fill="none" xmlns="http://www.w3.org/2000/svg">
<path d="M1.92871 14C1.51204 14 1.15804 13.854 0.866711 13.562C0.574711 13.2707 0.428711 12.9167 0.428711 12.5V1.5C0.428711 1.08333 0.574711 0.729333 0.866711 0.438C1.15804 0.146 1.51204 0 1.92871 0H12.9287C13.3454 0 13.6994 0.146 13.9907 0.438C14.2827 0.729333 14.4287 1.08333 14.4287 1.5V12.5C14.4287 12.9167 14.2827 13.2707 13.9907 13.562C13.6994 13.854 13.3454 14 12.9287 14H1.92871ZM1.92871 12.5H12.9287V1.5H1.92871V12.5Z" fill="#1C1B1F"/>
</svg>
