<svg width="20" height="19" viewBox="0 0 20 19" fill="none" xmlns="http://www.w3.org/2000/svg">
<path d="M20.0001 8.5C20.0001 6.15 18.9101 3.97 16.9301 2.35C15.0701 0.83 12.6201 0 10.0301 0C7.44006 0 4.99006 0.84 3.13006 2.35C1.15006 3.96 0.0600586 6.15 0.0600586 8.5C0.0600586 10.85 1.15006 13.03 3.13006 14.65C4.99006 16.17 7.44006 17 10.0301 17C10.5201 17 11.0101 16.97 11.4901 16.91C12.1701 18.15 13.4901 19 15.0001 19C17.2101 19 19.0001 17.21 19.0001 15C19.0001 14.28 18.8101 13.61 18.4801 13.03C19.4701 11.69 20.0001 10.14 20.0001 8.5ZM15.0001 17C14.4601 17 13.9701 16.79 13.6101 16.44C13.2301 16.08 13.0001 15.57 13.0001 15C13.0001 14.83 13.0201 14.67 13.0601 14.51C13.2801 13.64 14.0601 13 15.0001 13C15.2301 13 15.4501 13.04 15.6501 13.11C16.3201 13.34 16.8301 13.91 16.9601 14.62C16.9901 14.74 17.0001 14.87 17.0001 15C17.0001 16.1 16.1001 17 15.0001 17ZM17.0601 11.57C16.4601 11.21 15.7601 11 15.0001 11C12.8101 11 11.0301 12.77 11.0001 14.95C10.6801 14.98 10.3501 15 10.0201 15C5.61006 15 2.04006 12.09 2.04006 8.5C2.04006 4.91 5.61006 2 10.0201 2C14.4301 2 18.0001 4.91 18.0001 8.5C18.0001 9.61 17.6601 10.66 17.0601 11.57Z" fill="#666666"/>
<path d="M6.25 9.75C6.94036 9.75 7.5 9.19036 7.5 8.5C7.5 7.80964 6.94036 7.25 6.25 7.25C5.55964 7.25 5 7.80964 5 8.5C5 9.19036 5.55964 9.75 6.25 9.75Z" fill="#666666"/>
<path d="M10 9.75C10.6904 9.75 11.25 9.19036 11.25 8.5C11.25 7.80964 10.6904 7.25 10 7.25C9.30964 7.25 8.75 7.80964 8.75 8.5C8.75 9.19036 9.30964 9.75 10 9.75Z" fill="#666666"/>
<path d="M13.75 9.75C14.4404 9.75 15 9.19036 15 8.5C15 7.80964 14.4404 7.25 13.75 7.25C13.0596 7.25 12.5 7.80964 12.5 8.5C12.5 9.19036 13.0596 9.75 13.75 9.75Z" fill="#666666"/>
</svg>
