<svg width="20" height="20" viewBox="0 0 20 20" fill="none" xmlns="http://www.w3.org/2000/svg">
<path d="M4.65371 12.94C2.50371 9.03 2.10371 3.16 4.71371 2.17C5.95371 1.71 7.09371 2.24 8.29371 3.2C11.5537 5.86 13.7937 12.12 12.8137 15.68C13.6437 14.88 14.3637 13.9 15.0037 12.73C14.6937 9.09 12.9637 5.03 10.3437 2.37C9.05371 1.02 7.15371 -0.0400005 5.58371 0.00999946C3.89371 0.00999946 2.46371 0.96 1.67371 2.51C-0.456295 6.98 1.99371 13.71 5.23371 17.29C4.73371 16.02 4.56371 14.41 4.66371 12.95L4.65371 12.94Z" fill="#000"/>
<path d="M16.7237 0.320005C14.7837 -0.489995 12.6537 0.340005 11.0737 1.68C11.5337 2.14 11.9637 2.65 12.3737 3.2C13.5737 2.24 14.7137 1.71 15.9537 2.17C18.1137 3.07 18.4137 7.3 16.6237 11.62C16.1937 12.67 15.6337 13.71 15.0037 14.61C13.4637 16.74 11.8337 18.12 9.99368 17.97C8.86368 17.79 8.19368 16.93 7.85368 15.67C7.15368 13.38 8.10368 9.14001 9.74368 6.43001C9.34368 5.79001 8.90367 5.21 8.44367 4.72C6.22367 8.22001 4.56368 13.67 6.41368 17.5C7.22368 19.1 8.74367 20.06 10.4837 20C14.2137 19.76 17.0137 15.87 18.4737 12.39C20.0937 8.54 20.9337 2.25 16.7237 0.320005Z" fill="#000"/>
</svg>
