<svg width="94" height="20" viewBox="0 0 94 20" fill="none" xmlns="http://www.w3.org/2000/svg">
<g clip-path="url(#clip0_22_774)">
<path d="M25.203 0C23.8985 0.00229596 22.6061 0.250167 21.3935 0.730652C19.7954 1.35659 18.2893 2.36764 16.917 3.6998C16.9542 3.74285 16.9903 3.78706 17.0276 3.82894C18.841 5.96621 20.3564 8.59098 21.5308 11.6314C21.5424 11.6581 21.5529 11.6861 21.5634 11.7152C22.0375 12.9568 22.4424 14.2238 22.7762 15.5104C24.4534 9.4022 27.5393 4.53051 31.3663 1.9709C29.4665 0.700402 27.3854 0 25.203 0ZM22.8239 10.0316C21.8683 7.75794 20.7207 5.71258 19.3973 3.92667C20.2516 3.27048 21.1397 2.76089 22.0499 2.40487C23.9837 1.63032 26.1352 1.59553 28.093 2.30714C26.0073 4.29316 24.2195 6.91792 22.8239 10.0316Z" fill="#5E60FF"/>
<path d="M19.8697 12.3213C18.7745 9.47637 17.3498 6.99849 15.6831 5.02381C13.9977 3.02848 12.0644 1.54973 9.97283 0.730652C8.76004 0.250178 7.46757 0.00230802 6.163 0C3.98063 0 1.89953 0.700402 0 1.9709C4.71391 5.12271 8.29997 11.7815 9.52006 19.935H21.8461C21.4375 17.2043 20.7624 14.6412 19.8697 12.3213ZM3.26715 2.3083C5.22677 1.59545 7.38052 1.62983 9.31637 2.40487C11.1018 3.10294 12.7814 4.3746 14.3096 6.18262C15.8309 7.98365 17.117 10.2163 18.1355 12.8216L18.1913 12.967C18.833 14.6469 19.3374 16.3761 19.6995 18.1374H11.039C9.79125 11.536 6.99637 5.88012 3.26715 2.3083Z" fill="#5E60FF"/>
<path d="M31.291 7.62067H35.4649C38.8403 7.62067 41.1058 9.75619 41.1058 13.5113C41.1058 17.4897 38.9706 19.9356 35.3086 19.9356H31.291V7.62067ZM33.2322 18.3751H35.2524C37.8241 18.3751 39.0992 16.5554 39.0992 13.5526C39.0992 10.8807 37.7127 9.19948 35.2696 9.19948H33.2327L33.2322 18.3751Z" fill="#5E60FF"/>
<path d="M42.0552 18.499L48.6587 9.24573H42.3962V7.62067H50.915V9.22042L44.422 18.3108H51.1935V19.935H42.0566L42.0552 18.499Z" fill="#5E60FF"/>
<path d="M53.1821 19.935V7.62067H55.6918C59.8285 15.3222 60.7465 16.9667 61.0002 17.6046H61.0293C60.9109 16.0464 60.8955 14.0479 60.8955 12.043V7.62067H62.6917V19.935H60.3234C55.9226 11.5985 55.1855 10.1989 54.9065 9.61396H54.8876C54.9772 11.1608 54.9749 13.2684 54.9749 15.4755V19.935H53.1821Z" fill="#5E60FF"/>
<path d="M73.0972 14.3106H67.5735V18.3198H73.6571L73.655 19.935H65.6821V7.62067H73.3457V9.24485H67.5726V12.6782H73.0964L73.0972 14.3106Z" fill="#5E60FF"/>
<path d="M83.0053 14.3106H77.4819V18.3198H83.5652V19.935H75.5923V7.62067H83.2556V9.24485H77.4819V12.6782H83.0053V14.3106Z" fill="#5E60FF"/>
<path d="M87.4085 14.5555V19.9365H85.5V7.62067H90.1668C92.4385 7.62067 94.0002 8.75998 94.0002 10.8667C94.0002 12.5939 93.019 13.4057 92.0215 13.7463C93.2401 14.1651 93.7837 15.1299 93.7837 16.8024V17.0933C93.7837 18.1852 93.818 19.2401 93.9527 19.9338H92.0698C91.8935 19.4274 91.8516 18.419 91.8516 17.0575V16.7858C91.8516 15.1765 91.2824 14.5555 89.3951 14.5555H87.4085ZM87.4085 12.988H89.5618C91.031 12.988 92.0547 12.5604 92.0547 11.0133C92.0547 9.77277 91.2035 9.18755 89.8953 9.18755H87.4088L87.4085 12.988Z" fill="#5E60FF"/>
</g>
<defs>
<clipPath id="clip0_22_774">
<rect width="94" height="19.935" fill="white"/>
</clipPath>
</defs>
</svg>
