<svg width="4" height="16" viewBox="0 0 4 16" fill="none" xmlns="http://www.w3.org/2000/svg">
<path d="M2 16.0002C1.45 16.0002 0.979334 15.8045 0.588 15.4132C0.196 15.0212 0 14.5502 0 14.0002C0 13.4502 0.196 12.9792 0.588 12.5872C0.979334 12.1958 1.45 12.0002 2 12.0002C2.55 12.0002 3.021 12.1958 3.413 12.5872C3.80433 12.9792 4 13.4502 4 14.0002C4 14.5502 3.80433 15.0212 3.413 15.4132C3.021 15.8045 2.55 16.0002 2 16.0002ZM2 10.0002C1.45 10.0002 0.979334 9.80415 0.588 9.41215C0.196 9.02082 0 8.55015 0 8.00015C0 7.45015 0.196 6.97915 0.588 6.58715C0.979334 6.19582 1.45 6.00015 2 6.00015C2.55 6.00015 3.021 6.19582 3.413 6.58715C3.80433 6.97915 4 7.45015 4 8.00015C4 8.55015 3.80433 9.02082 3.413 9.41215C3.021 9.80415 2.55 10.0002 2 10.0002ZM2 4.00015C1.45 4.00015 0.979334 3.80415 0.588 3.41215C0.196 3.02082 0 2.55015 0 2.00015C0 1.45015 0.196 0.979486 0.588 0.588152C0.979334 0.196152 1.45 0.000152588 2 0.000152588C2.55 0.000152588 3.021 0.196152 3.413 0.588152C3.80433 0.979486 4 1.45015 4 2.00015C4 2.55015 3.80433 3.02082 3.413 3.41215C3.021 3.80415 2.55 4.00015 2 4.00015Z" fill="#666666"/>
</svg>
