<svg width="20" height="20" viewBox="0 0 20 20" fill="none" xmlns="http://www.w3.org/2000/svg">
<path d="M0 8C0 6.53333 0.295833 5.14583 0.8875 3.8375C1.47917 2.52917 2.325 1.4 3.425 0.45L4.85 1.85C3.95 2.63333 3.25 3.55417 2.75 4.6125C2.25 5.67083 2 6.8 2 8H0ZM18 8C18 6.8 17.75 5.67083 17.25 4.6125C16.75 3.55417 16.05 2.63333 15.15 1.85L16.575 0.45C17.675 1.4 18.5208 2.52917 19.1125 3.8375C19.7042 5.14583 20 6.53333 20 8H18ZM2 17V15H4V8C4 6.61667 4.41667 5.3875 5.25 4.3125C6.08333 3.2375 7.16667 2.53333 8.5 2.2V1.5C8.5 1.08333 8.64583 0.729167 8.9375 0.4375C9.22917 0.145833 9.58333 0 10 0C10.4167 0 10.7708 0.145833 11.0625 0.4375C11.3542 0.729167 11.5 1.08333 11.5 1.5V2.2C12.8333 2.53333 13.9167 3.2375 14.75 4.3125C15.5833 5.3875 16 6.61667 16 8V15H18V17H2ZM10 20C9.45 20 8.97917 19.8042 8.5875 19.4125C8.19583 19.0208 8 18.55 8 18H12C12 18.55 11.8042 19.0208 11.4125 19.4125C11.0208 19.8042 10.55 20 10 20ZM6 15H14V8C14 6.9 13.6083 5.95833 12.825 5.175C12.0417 4.39167 11.1 4 10 4C8.9 4 7.95833 4.39167 7.175 5.175C6.39167 5.95833 6 6.9 6 8V15Z" fill="#515151"/>
</svg>
