<svg width="18" height="18" viewBox="0 0 18 18" fill="none" xmlns="http://www.w3.org/2000/svg">
  <path d="M9.75 9.25018H9.25V9.75018V12.2502H8.75V9.75018V9.25018H8.25H5.75V8.75018H8.25H8.75V8.25018V5.75018H9.25V8.25018V8.75018H9.75H12.25V9.25018H9.75ZM5.8769 16.3686C6.8547 16.7906 7.89742 17.0002 9 17.0002C10.1026 17.0002 11.1453 16.7906 12.1231 16.3686C13.0912 15.9509 13.9383 15.3815 14.6598 14.66C15.3813 13.9385 15.9507 13.0914 16.3685 12.1233C16.7904 11.1455 17 10.1028 17 9.00018C17 7.89761 16.7904 6.85489 16.3685 5.87709C15.9507 4.90899 15.3813 4.06189 14.6598 3.34038C13.9383 2.61887 13.0912 2.04947 12.1231 1.63173C11.1453 1.2098 10.1026 1.00018 9 1.00018C7.89742 1.00018 6.8547 1.2098 5.8769 1.63172C4.90881 2.04947 4.06171 2.61887 3.3402 3.34038C2.61868 4.06189 2.04928 4.90899 1.63154 5.87709C1.20961 6.85489 1 7.89761 1 9.00018C1 10.1028 1.20961 11.1455 1.63154 12.1233C2.04928 13.0914 2.61868 13.9385 3.3402 14.66C4.06171 15.3815 4.90881 15.9509 5.8769 16.3686Z" fill="#5E60FF" stroke="white"/>
</svg>
