<svg width="21" height="20" viewBox="0 0 21 20" fill="none" xmlns="http://www.w3.org/2000/svg">
<path d="M2.6665 20C2.1165 20 1.64584 19.8043 1.2545 19.413C0.862504 19.021 0.666504 18.55 0.666504 18V8C0.666504 7.45 0.862504 6.979 1.2545 6.587C1.64584 6.19567 2.1165 6 2.6665 6H18.6665C19.2165 6 19.6875 6.19567 20.0795 6.587C20.4708 6.979 20.6665 7.45 20.6665 8V18C20.6665 18.55 20.4708 19.021 20.0795 19.413C19.6875 19.8043 19.2165 20 18.6665 20H2.6665ZM2.6665 18H18.6665V8H2.6665V18ZM8.6665 17L14.6665 13L8.6665 9V17ZM2.6665 5V3H18.6665V5H2.6665ZM5.6665 2V0H15.6665V2H5.6665Z" fill="#000"/>
</svg>
