<svg width="22" height="22" viewBox="0 0 22 22" fill="none" xmlns="http://www.w3.org/2000/svg">
<path d="M12.427 5.73632H9.55973C7.45066 5.73632 5.73446 7.45305 5.73446 9.56275V12.4309C5.73446 14.5406 7.45066 16.2573 9.55973 16.2573H12.427C12.7578 16.2573 13.0748 16.2159 13.385 16.1332V16.2573C13.385 17.8361 12.0961 19.1254 10.5178 19.1254H9.55973C5.86541 19.1254 2.86723 16.1194 2.86723 12.4309V9.55586C2.86723 8.1356 3.30834 6.81875 4.0734 5.73632H3.81838C1.7162 5.73632 0 7.45305 0 9.56275V12.4309C0 17.7051 4.29395 22.0004 9.56662 22.0004H10.5247C13.6883 22.0004 16.266 19.4288 16.266 16.2573V9.56275C16.266 7.45305 14.5498 5.73632 12.4407 5.73632H12.427ZM13.385 12.4309C13.385 12.9548 12.9577 13.3892 12.427 13.3892H9.55973C9.03591 13.3892 8.60169 12.9617 8.60169 12.4309V9.56275C8.60169 9.03877 9.02902 8.60442 9.55973 8.60442H12.427C12.9508 8.60442 13.385 9.03188 13.385 9.56275V12.4309Z" fill="white"/>
<path d="M21.9934 9.56264V12.4307C21.9934 14.5405 20.2772 16.2572 18.1682 16.2572H17.9269C18.6851 15.1747 19.1262 13.8579 19.1262 12.4376V9.56264C19.1262 5.8672 16.1211 2.8681 12.4337 2.8681H9.55959C8.13976 2.8681 6.82331 3.30935 5.74121 4.06774V3.82643C5.74121 1.71672 7.45741 0 9.56648 0H12.4337C17.7064 0 22.0003 4.29526 22.0003 9.56953L21.9934 9.56264Z" fill="white"/>
</svg>
