<svg width="16" height="14" viewBox="0 0 16 14" fill="none" xmlns="http://www.w3.org/2000/svg">
<path d="M5.783 13.8L4.5334 11.7336L2.183 11.2L2.3998 8.80001L0.799805 7.00001L2.3998 5.20001L2.183 2.80001L4.5334 2.26641L5.783 0.200012L7.9998 1.15041L10.2166 0.200012L11.4662 2.26641L13.8166 2.80001L13.5998 5.20001L15.1998 7.00001L13.5998 8.80001L13.8166 11.2L11.4662 11.7336L10.2166 13.8L7.9998 12.8496L5.783 13.8ZM6.2662 12.2832L7.9998 11.5504L9.7334 12.2832L10.6998 10.6664L12.5334 10.2496L12.3662 8.40001L13.5998 7.00001L12.3662 5.60001L12.5334 3.75041L10.6998 3.33361L9.7334 1.71681L7.9998 2.44961L6.2662 1.71681L5.2998 3.33361L3.4662 3.73361L3.6334 5.60001L2.3998 7.00001L3.6494 8.40001L3.4662 10.2664L5.2998 10.6832L6.2662 12.2832ZM7.1502 9.40001L11.1166 5.44961L10.2662 4.60001L7.1502 7.70001L5.7334 6.30001L4.883 7.15041L7.1502 9.40001Z" fill="#666666"/>
</svg>
