<svg width="17" height="18" viewBox="0 0 17 18" fill="none" xmlns="http://www.w3.org/2000/svg">
<path d="M2.33301 14C2.88301 14 3.33301 13.55 3.33301 13V6C3.33301 5.45 2.88301 5 2.33301 5C1.78301 5 1.33301 5.45 1.33301 6V13C1.33301 13.55 1.78301 14 2.33301 14Z" fill="#707070"/>
<path d="M6.33301 14C6.88301 14 7.33301 13.55 7.33301 13V1C7.33301 0.45 6.88301 0 6.33301 0C5.78301 0 5.33301 0.45 5.33301 1V13C5.33301 13.55 5.78301 14 6.33301 14Z" fill="#707070"/>
<path d="M10.333 14C10.883 14 11.333 13.55 11.333 13V7C11.333 6.45 10.883 6 10.333 6C9.78301 6 9.33301 6.45 9.33301 7V13C9.33301 13.55 9.78301 14 10.333 14Z" fill="#707070"/>
<path d="M14.333 14C14.883 14 15.333 13.55 15.333 13V3C15.333 2.45 14.883 2 14.333 2C13.783 2 13.333 2.45 13.333 3V13C13.333 13.55 13.783 14 14.333 14Z" fill="#707070"/>
<path d="M15.333 16H1.33301C0.783008 16 0.333008 16.45 0.333008 17C0.333008 17.55 0.783008 18 1.33301 18H15.333C15.883 18 16.333 17.55 16.333 17C16.333 16.45 15.883 16 15.333 16Z" fill="#707070"/>
</svg>
